<svg xmlns="http://www.w3.org/2000/svg" width="25" height="25" style=""><rect id="backgroundrect" width="100%" height="100%" x="0" y="0" fill="none" stroke="none"/>

 <g style="">
  <title>background</title>
  <rect fill="none" id="canvas_background" height="27" width="27" y="-1" x="-1"/>
 </g>
 <g style="" class="currentLayer">
  <title>Layer 1</title>
  <path stroke="#000000" id="svg_1" d="m16.916672843012694,6.732672454506563 c0.029829457634582553,-1.2944233445718853 0.006628510755267488,-2.6847289949356563 0.003314255377633749,-2.732670962257027 l-9.041670638406933,0 c0,0.047941967321371806 -0.026515202256948853,1.438247617685142 0.003314255377633749,2.732670962257027 l-2.3664786135340132,0 c0,3.2600285306649694 0.3281251932162871,4.904425141866238 0.6960231898179972,6.074199860057816 s0.8750005152434318,2.171754179609211 1.9455502124184063,3.3702944039637814 c0.9976331807773346,1.117039042793325 3.1652477773842316,2.5696694135599647 3.4569144225927295,2.7614356539945932 l0,1.3567472505493252 c-0.15246212316848598,0.47941560108657133 -0.7788830519664772,1.3519527280470165 -2.7608912327747337,1.3519527280470165 l-0.6860798440671568,0 l0,2.3011965140663992 l8.484852550246886,0 l0,-2.3011965140663992 l-0.8517995683641169,0 c-2.011838218060778,0 -2.485796444072343,-0.9156845717795086 -2.595171508477772,-1.3519527280470165 l0,-1.3567472505493252 c0.3082385017146059,-0.22053174659762345 2.6813456260038873,-1.9320459718532106 3.4602286779703624,-2.756641945917713 c0.8352277118580081,-0.882125357539635 1.6870272802221247,-2.4689925852657706 1.9455502124184063,-3.3702944039637814 s0.6927089344403635,-3.1066152125470956 0.6927089344403635,-6.078994382560123 l-2.3863647254177556,0 zm-9.359852485872377,5.124956888463861 c-0.29166664520849733,-0.8725371269604455 -0.46401545987866455,-1.8169863904775192 -0.5203601197701956,-2.9675846475107184 l0.9512312870187054,0 c0.023200946879315065,0.2876493606519425 0.04640131414069072,0.5417403214894405 0.07623135139321269,0.781447714820011 c0.218750128810858,1.879310296454959 0.49053066213561386,3.365499881461473 0.8517995683641169,4.626364011793484 c-0.5733905242840939,-0.6472116722859432 -1.0374059841627583,-1.4766013544273249 -1.3589020870058377,-2.440227079102776 zm9.704549535594772,0 c-0.3281251932162871,0.9732147696800679 -0.7954549084725856,1.8073981598983309 -1.3787887785075192,2.459403540261153 c0.3645837412240769,-1.2560696078297022 0.6297351841756249,-2.723082731677839 0.8551138237417507,-4.645540472951861 c0.026515202256948853,-0.23970820775600038 0.05303040451389769,-0.4937983541680684 0.07623135139321269,-0.781447714820011 l0.9711179785203861,0 c-0.059658915269165176,1.1505982570331996 -0.22869347456169883,2.0950475205502728 -0.5236743751478296,2.9675846475107184 z" class="" fill="#e9e98a" fill-opacity="1" stroke-opacity="1"/>
 </g>
</svg>