<svg xmlns="http://www.w3.org/2000/svg" width="25" height="25.53333333333333" style=""><rect id="backgroundrect" width="100%" height="100%" x="0" y="0" fill="none" stroke="none" class="" style=""/><g class="currentLayer" style=""><title>Layer 1</title><g class=""><path d="M12.610353803024267,1.0545055125102563 c-3.900743655724725,0 -7.062166731722275,2.9456024616099827 -7.062166731722275,6.580054364503976 s3.16142307599755,6.580054364503976 7.062166731722275,6.580054364503976 s7.062166731722275,-2.9456024616099827 7.062166731722275,-6.580054364503976 S16.511097458748996,1.0545055125102563 12.610353803024267,1.0545055125102563 zm0,10.692588342318965 c-2.43865444954785,0 -4.413854207326422,-1.840358955072208 -4.413854207326422,-4.112533977814985 s1.9751997577785736,-4.112533977814985 4.413854207326422,-4.112533977814985 s4.413854207326422,1.840358955072208 4.413854207326422,4.112533977814985 s-1.9751997577785736,4.112533977814985 -4.413854207326422,4.112533977814985 zM9.17306483906882,15.21190373113834 c-1.0538076919991832,-0.4163940652537689 -1.9972690288152064,-1.0075708245646706 -2.8027974216522775,-1.7632489429881768 c-0.07724244862821289,-0.0719693446117626 -0.1544848972564259,-0.14393868922352535 -0.22621002812547997,-0.2210487013075565 L2.0171037054408556,19.972161810459184 h5.296625048791706 l2.6483125243958523,4.112533977814985 l2.6483125243958523,-5.4388261856603215 l1.4069160285852969,-2.889055119415027 c-0.4634546917692751,0.066828677139494 -0.9324267012977075,0.10281334944537497 -1.4069160285852969,0.10281334944537497 c-1.1917406359781348,0 -2.344860047642162,-0.2159080338352878 -3.437288963955453,-0.6477241015058623 zM19.082167534516635,13.232746754314887 c-0.0717251308690547,0.0719693446117626 -0.1489675794972681,0.14907935669579425 -0.22621002812547997,0.2210487013075565 c-0.8055283928370728,0.7505374509512374 -1.7489897296530956,1.346854877734409 -2.797280103893122,1.758108275515907 L14.70693455150432,17.977582831218914 l-1.2082925892556082,2.488083056578068 L15.258666327420125,24.08469578827418 l2.6483125243958523,-4.112533977814985 h5.296625048791706 l-4.12143636609105,-6.739415056144308 z" id="svg_1" class="" fill="#000099" fill-opacity="1" stroke="#eb1a1a" stroke-opacity="1"/><path fill="#e98a8a" stroke-dashoffset="" fill-rule="nonzero" marker-start="" marker-mid="" marker-end="" id="svg_7" d="M9.832533881942659,2.6170402327788724 L10.381435742353846,0.7980936410072195 L10.706358960622536,1.7640907337033884 L10.157457100211367,3.583037325475087 L8.621815670370818,2.4684032913390643 L8.296892452102128,1.5024061986428956 L9.832533881942659,2.6170402327788724 z" style="color: rgb(0, 0, 0);" class="" fill-opacity="1"/><path fill="#e98a8a" stroke-dashoffset="" fill-rule="nonzero" marker-start="" marker-mid="" marker-end="" d="M14.242334269505417,2.2285633053060288 L15.722512170131315,1.0409473998073686 L15.444484879091359,2.021535756232664 L13.964306978465444,3.2091516617313722 L13.328454826474808,1.4188761079371037 L13.606482117514764,0.43828775151180827 L14.242334269505417,2.2285633053060288 z" style="color: rgb(0, 0, 0);" class="" fill-opacity="1" id="svg_15"/><path fill="#abecec" stroke-dashoffset="" fill-rule="nonzero" marker-start="" marker-mid="" marker-end="" d="M12.625461314740342,2.041304750148086 L13.730372873200274,0.4516157411918389 L13.767771622487812,1.4703382367112088 L12.662860064027882,3.0600272456675057 L11.444375356013316,1.5560171709295965 L11.406976606725777,0.5372946754102266 L12.625461314740342,2.041304750148086 z" style="color: rgb(0, 0, 0);" class="" id="svg_16"/><path fill="#abecec" stroke-dashoffset="" fill-rule="nonzero" marker-start="" marker-mid="" marker-end="" d="M5.961050829865403,6.9878409859345805 L4.6418169144544,5.571781300966212 L5.643507603982522,5.7487045582208705 L6.962741519393576,7.16476424318925 L5.239999448262044,8.04353506272255 L4.23830875873392,7.8666118054678895 L5.961050829865403,6.9878409859345805 z" style="color: rgb(0, 0, 0);" class="" id="svg_29"/><path fill="#abecec" stroke-dashoffset="" fill-rule="nonzero" marker-start="" marker-mid="" marker-end="" d="M17.085384715207304,11.832638330407825 L17.11448254620199,13.769796799734547 L16.490641556330615,12.964643446786354 L16.4615437253359,11.027484977459597 L18.326951544975287,11.535450434929814 L18.950792534846663,12.340603787878006 L17.085384715207304,11.832638330407825 z" style="color: rgb(0, 0, 0);" class="" id="svg_6"/><path fill="#abecec" stroke-dashoffset="" fill-rule="nonzero" marker-start="" marker-mid="" marker-end="" d="M10.704460173539967,12.782223557726175 L9.000495065786376,13.697031179900605 L9.428015021917556,12.772042077610834 L11.13198012967117,11.857234455436357 L11.537633918370787,13.751472002306672 L11.110113962239605,14.676461104596445 L10.704460173539967,12.782223557726175 z" style="color: rgb(0, 0, 0);" class="" id="svg_8"/><path fill="#abecec" stroke-dashoffset="" fill-rule="nonzero" marker-start="" marker-mid="" marker-end="" d="M14.24141683746693,12.898074714494165 L13.533023451307374,14.700671301449148 L13.261708304861504,13.718196171840397 L13.97010169102105,11.915599584885364 L15.502435350820432,13.096624781683396 L15.773750497266303,14.079099911292147 L14.24141683746693,12.898074714494165 z" style="color: rgb(0, 0, 0);" class="" id="svg_25"/><path fill="#abecec" stroke-dashoffset="" fill-rule="nonzero" marker-start="" marker-mid="" marker-end="" d="M18.31228597981814,9.25021789704872 L19.22771996501637,10.956571801609122 L18.30413382207254,10.529545727990252 L17.388699836874263,8.82319182342983 L19.278050457365374,8.413649397396433 L20.201636600309204,8.840675471015306 L18.31228597981814,9.25021789704872 z" style="color: rgb(0, 0, 0);" class="" id="svg_26"/><path fill="#e98a8a" stroke-dashoffset="" fill-rule="nonzero" marker-start="" marker-mid="" marker-end="" d="M12.734172496687295,13.150282706414202 L11.64352666991157,14.74983679977801 L11.597015957649331,13.731491326479214 L12.687661784425055,12.131937233115359 L13.919552351073499,13.624937275012723 L13.966063063335737,14.643282748311519 L12.734172496687295,13.150282706414202 z" style="color: rgb(0, 0, 0);" class="" id="svg_20" fill-opacity="1"/><path fill="#e98a8a" stroke-dashoffset="" fill-rule="nonzero" marker-start="" marker-mid="" marker-end="" d="M18.681046561961317,7.893362780618704 L20.08723200039474,9.222715801836276 L19.076362295557406,9.109820268295495 L17.670176857123934,7.780467247077915 L19.33384268131896,6.793961032516716 L20.344712386156292,6.906856566057499 L18.681046561961317,7.893362780618704 z" style="color: rgb(0, 0, 0);" class="" fill-opacity="1" id="svg_21"/><path fill="#e98a8a" stroke-dashoffset="" fill-rule="nonzero" marker-start="" marker-mid="" marker-end="" d="M7.645577817862191,4.321044452143045 L7.410740503080621,2.398016438635686 L8.11661305900414,3.1319801118009885 L8.351450373785742,5.055008125308381 L6.442665084496349,4.749103931117846 L5.736792528572831,4.0151402579525435 L7.645577817862191,4.321044452143045 z" style="color: rgb(0, 0, 0);" class="" fill-opacity="1" id="svg_27"/><path fill="#e84141" stroke-dashoffset="" fill-rule="nonzero" marker-start="" marker-mid="" marker-end="" d="M8.207018996333998,12.02544354077379 L6.35255289207835,12.572175667276795 L6.959553906893156,11.75419490559463 L8.814020011148834,11.207462779091587 L8.825119314645725,13.14480825522723 L8.218118299830918,13.962789016909394 L8.207018996333998,12.02544354077379 z" style="color: rgb(0, 0, 0);" class="" fill-opacity="1" id="svg_28"/><path fill="#e98a8a" stroke-dashoffset="" fill-rule="nonzero" marker-start="" marker-mid="" marker-end="" d="M17.50516734858635,10.756076576082503 L17.90326741204912,12.651923806604763 L17.137340820211318,11.981164890510247 L16.739240756748508,10.085317659987954 L18.66713796144746,10.226459844797578 L19.433064553285263,10.897218760892095 L17.50516734858635,10.756076576082503 z" style="color: rgb(0, 0, 0);" class="" fill-opacity="1" id="svg_22"/><path fill="#e98a8a" stroke-dashoffset="" fill-rule="nonzero" marker-start="" marker-mid="" marker-end="" d="M18.2047804646296,5.066190457913713 L20.136454963219524,5.138846999832033 L19.301439396844227,5.720922964583643 L17.369764898254264,5.648266422665351 L17.97390110328868,3.8079380347202414 L18.808916669663976,3.2258620699686316 L18.2047804646296,5.066190457913713 z" style="color: rgb(0, 0, 0);" class="" fill-opacity="1" id="svg_23"/><path fill="#abecec" stroke-dashoffset="" fill-rule="nonzero" marker-start="" marker-mid="" marker-end="" d="M6.264918591751287,8.134499318826949 L4.3684878237166345,7.759262462790766 L5.284218920917154,7.315568658013735 L7.18064968895185,7.690805514049897 L6.296149583105241,9.413469414949482 L5.380418485904722,9.857163219726512 L6.264918591751287,8.134499318826949 z" style="color: rgb(0, 0, 0);" class="" id="svg_9"/><path fill="#e98a8a" stroke-dashoffset="" fill-rule="nonzero" marker-start="" marker-mid="" marker-end="" d="M16.75551252791461,3.6173988573880798 L18.629751814544353,3.143209096571719 L17.99153475493243,3.9369640062636733 L16.117295468302657,4.41115376708007 L16.181221149622413,2.4748360338246504 L16.819438209234335,1.6810811241326968 L16.75551252791461,3.6173988573880798 z" style="color: rgb(0, 0, 0);" class="" id="svg_12" fill-opacity="1"/><path fill="#abecec" stroke-dashoffset="" fill-rule="nonzero" marker-start="" marker-mid="" marker-end="" id="svg_11" d="M4.303438133774175,10.366759886441562 L4.264109370821451,10.327301761752938 L4.290010465209535,10.327301761752938 L4.329339228162259,10.366759886441562 L4.290010465209535,10.406217979363127 L4.264109370821451,10.406217979363127 L4.303438133774175,10.366759886441562 z" style="color: rgb(0, 0, 0);" class=""/><path fill="#abecec" stroke-dashoffset="" fill-rule="nonzero" marker-start="" marker-mid="" marker-end="" id="svg_13" d="M4.751016699245485,11.626196951870822 L4.718435623752342,11.593508709404528 L4.739892833393734,11.593508709404528 L4.772473908886877,11.626196951870822 L4.739892833393734,11.65888516802037 L4.718435623752342,11.65888516802037 L4.751016699245485,11.626196951870822 z" style="color: rgb(0, 0, 0);" class=""/><path fill="#abecec" fill-opacity="1" stroke="none" stroke-opacity="1" stroke-width="1" stroke-dasharray="none" stroke-linejoin="miter" stroke-linecap="butt" stroke-dashoffset="" fill-rule="nonzero" opacity="1" marker-start="" marker-mid="" marker-end="" id="svg_10" d="M5.066173698486037,6.5788159566999544 " style="color: rgb(0, 0, 0);" class=""/><path fill="#ffffff" stroke-dashoffset="" fill-rule="nonzero" marker-start="" marker-mid="" marker-end="" id="svg_14" d="M6.741840721800738,5.48426312447835 L5.940448965844203,3.851756647230169 L6.770541094692248,4.197224202720112 L7.571932850648614,5.829730679968222 L5.85246650777888,6.413105954817793 L5.022374378930834,6.0676383993278495 L6.741840721800738,5.48426312447835 z" style="color: rgb(0, 0, 0);" class=""/><path fill="#ffffff" stroke-dashoffset="" fill-rule="nonzero" marker-start="" marker-mid="" marker-end="" d="M9.451544578816819,12.320590265462485 L7.72264320425451,12.875249789029125 L8.185539183092327,12.103068328095215 L9.91444055765454,11.548408804528734 L10.237599252130266,13.338741715396884 L9.774703273292449,14.110923176330793 L9.451544578816819,12.320590265462485 z" style="color: rgb(0, 0, 0);" class="" id="svg_24"/><path fill="#ffffff" stroke-dashoffset="" fill-rule="nonzero" marker-start="" marker-mid="" marker-end="" d="M18.304444007186532,6.241563637773887 L19.939226166604836,7.032549620051321 L19.07302971857719,7.273026111419798 L17.438247559159063,6.482040129142315 L18.43396723074852,4.960766018579369 L19.30016367877617,4.720289527210892 L18.304444007186532,6.241563637773887 z" style="color: rgb(0, 0, 0);" class="" id="svg_2"/><path fill="#ffffff" stroke-dashoffset="" fill-rule="nonzero" marker-start="" marker-mid="" marker-end="" d="M15.147884591081562,2.718544966523348 L16.875684741135423,2.160449169982206 L16.41431803119825,2.9335494313610386 L14.686517881144482,3.491645227902021 L14.359816264450865,1.7019583367751085 L14.82118297438804,0.928858075396276 L15.147884591081562,2.718544966523348 z" style="color: rgb(0, 0, 0);" class="" id="svg_17"/><path fill="#41e8e8" stroke-dashoffset="" fill-rule="nonzero" marker-start="" marker-mid="" marker-end="" d="M8.826214847002715,3.1569798969792275 L8.894179640573226,1.3388611848730614 L9.46112118114978,2.037883429312756 L9.393156387579154,3.856002141418778 L7.603480577542042,3.5513002786125076 L7.036539036965488,2.852278034172815 L8.826214847002715,3.1569798969792275 z" style="color: rgb(0, 0, 0);" class="" id="svg_18" fill-opacity="1"/><path fill="#e98a8a" stroke-dashoffset="" fill-rule="nonzero" marker-start="" marker-mid="" marker-end="" d="M6.482648533350006,9.1012880536342 L4.775046607295982,8.48389666040397 L5.6118023936360055,8.154973334161845 L7.319404319689858,8.772364727392144 L6.485910951927812,10.388643325089348 L5.6491551655877865,10.717566651331472 L6.482648533350006,9.1012880536342 z" style="color: rgb(0, 0, 0);" class="" id="svg_19" fill-opacity="1"/><path fill="#ffffff" stroke-dashoffset="" fill-rule="nonzero" marker-start="" marker-mid="" marker-end="" d="M7.606059993029766,10.722664391087662 L5.7936637515881495,10.825798749569984 L6.434721734428526,10.19437444853689 L8.247117975870012,10.091240090054693 L8.112721868235296,11.905640748801464 L7.471663885394919,12.53706504983456 L7.606059993029766,10.722664391087662 z" style="color: rgb(0, 0, 0);" class="" id="svg_4"/><path fill="#ffffff" stroke-dashoffset="" fill-rule="nonzero" marker-start="" marker-mid="" marker-end="" d="M10.958726372881522,2.3510735236596236 L11.751871299216255,0.7145264164130476 L11.9897231536442,1.5832455356336297 L11.196578227309418,3.2197926428800283 L9.681115778369566,2.2181769674746814 L9.443263923941622,1.349457848254099 L10.958726372881522,2.3510735236596236 z" style="color: rgb(0, 0, 0);" class="" id="svg_5"/><path fill="#ffffff" stroke-dashoffset="" fill-rule="nonzero" marker-start="" marker-mid="" marker-end="" d="M15.8293605742303,12.305541843719173 L15.255821847667333,14.031742581228752 L14.907018814309058,13.201507671788576 L15.480557540872098,11.475306934279164 L17.113355008295105,12.270398642038455 L17.46215804165338,13.10063355147863 L15.8293605742303,12.305541843719173 z" style="color: rgb(0, 0, 0);" class="" id="svg_30"/><path fill="#ffffff" fill-opacity="1" stroke="#dadada" stroke-opacity="1" stroke-width="1" stroke-dasharray="none" stroke-linejoin="miter" stroke-linecap="butt" stroke-dashoffset="" fill-rule="nonzero" opacity="1" marker-start="" marker-mid="" marker-end="" d="M9.306115832684004,7.6902152865023155 C9.306115832684004,5.9745349071751335 10.780275058966518,4.5848337999201165 12.600224721043713,4.5848337999201165 C14.420174383120909,4.5848337999201165 15.894333609403425,5.9745349071751335 15.894333609403425,7.6902152865023155 C15.894333609403425,9.405895665829492 14.420174383120909,10.795596773084505 12.600224721043713,10.795596773084505 C10.780275058966518,10.795596773084505 9.306115832684004,9.405895665829492 9.306115832684004,7.6902152865023155 z" id="svg_31" class=""/></g></g></svg>