<svg width="24.999999999999996" height="24.999999999999996" xmlns="http://www.w3.org/2000/svg">

 <g>
  <title>background</title>
  <rect fill="none" id="canvas_background" height="27" width="27" y="-1" x="-1"/>
 </g>
 <g>
  <title>Layer 1</title>
  <path stroke="null" id="svg_1" d="m20.64045,3.718974c0.051464,-1.58937 0.011436,-3.29647 0.005718,-3.355336l-15.599363,0c0,0.058866 -0.045746,1.765966 0.005718,3.355336l-4.082825,0c0,4.002857 0.566106,6.021945 1.200831,7.458264s1.509616,2.666609 3.356608,4.138248c1.721191,1.371567 5.460921,3.155193 5.964126,3.390655l0,1.665895c-0.263039,0.588655 -1.343787,1.660008 -4.763295,1.660008l-1.183676,0l0,2.825546l14.638699,0l0,-2.825546l-1.469588,0c-3.470973,0 -4.288681,-1.124332 -4.477383,-1.660008l0,-1.665895c0.531796,-0.270782 4.626057,-2.372281 5.969844,-3.384769c1.440997,-1.083126 2.910585,-3.031576 3.356608,-4.138248s1.195113,-3.814487 1.195113,-7.464151l-4.117134,0zm-16.148314,6.292727c-0.503205,-1.071353 -0.800554,-2.231004 -0.897764,-3.643777l1.641135,0c0.040028,0.353193 0.080055,0.665181 0.13152,0.959508c0.377404,2.307529 0.8463,4.132361 1.469588,5.680525c-0.989256,-0.794685 -1.78981,-1.813059 -2.344479,-2.996256zm16.743011,0c-0.566106,1.194971 -1.372378,2.219231 -2.378789,3.019802c0.629007,-1.542277 1.086466,-3.343563 1.475306,-5.704071c0.045746,-0.294328 0.091492,-0.606315 0.13152,-0.959508l1.675445,0c-0.102928,1.412773 -0.394559,2.572424 -0.903482,3.643777z"/>
 </g>
</svg>