<svg xmlns="http://www.w3.org/2000/svg" width="25" height="25" style=""><rect id="backgroundrect" width="100%" height="100%" x="0" y="0" fill="none" stroke="none"/>

 <g style="">
  <title>background</title>
  <rect fill="none" id="canvas_background" height="27" width="27" y="-1" x="-1"/>
 </g>
 <g style="" class="currentLayer">
  <title>Layer 1</title>
  <path stroke="#000000" id="svg_1" d="m10.05270484515672,2.181880733182094 c0.02580224934006866,-0.9432963734851828 0.005733610357784569,-1.9564658929655756 0.0028668051788922856,-1.9914030594665029 l-7.820974927565684,0 c0,0.0349371665009273 -0.022935444161176374,1.0481066859813215 0.0028668051788922856,1.9914030594665029 l-2.0469856338773824,0 c0,2.3757089234600963 0.2838257454707929,3.5740443570894267 0.6020546571833499,4.42650445377419 s0.7568686545887804,1.5826412976229245 1.6828858338424726,2.456063931609572 c0.8629449584929669,0.8140295696357365 2.7379147611615258,1.8726175242679992 2.990204145569447,2.0123650032650664 l0,0.9887142151337314 c-0.13187855324425432,0.34936869749266725 -0.6737277948457722,0.9852202610823099 -2.388149488386096,0.9852202610823099 l-0.5934537402816545,0 l0,1.676970934971442 l7.339331602911025,0 l0,-1.676970934971442 l-0.7368000156064969,0 c-1.7402244442454138,0 -2.150194631237656,-0.6672947760391483 -2.2448032130612527,-0.9852202610823099 l0,-0.9887142151337314 c0.26662391166740135,-0.16071001629895165 2.3193431559025677,-1.4079566521249307 2.993070950748339,-2.008871642716967 c0.7224654883470161,-0.6428388781891637 1.4592655039535125,-1.7992504242213663 1.6828858338424726,-2.456063931609572 s0.5991878520044575,-2.2639107028611147 0.5991878520044575,-4.429998407825611 l-2.0641869663157544,0 zm-8.096199756134782,3.734754373388378 c-0.25228938440792087,-0.6358515635896422 -0.4013697714555672,-1.324108283427355 -0.45010746495681186,-2.1625937509130755 l0.8228076805283989,0 c0.020068638982284105,0.2096212184956002 0.0401367765995491,0.394787132644537 0.06593952730463674,0.5694711846392092 c0.1892171636471953,1.3695261250759034 0.4243052156167433,2.4525699775581513 0.7368000156064969,3.371410453193349 c-0.49597835327916445,-0.4716481867425911 -0.8973481247347308,-1.0760565378827274 -1.17543975848272,-1.778287886919481 zm8.394360028865055,0 c-0.2838257454707929,0.7092192571395971 -0.6880623221052515,1.3171209688278331 -1.1926415922861118,1.792262516118524 c0.31536210653366525,-0.9153465215837762 0.5447160467804091,-1.9844157448669817 0.7396668207853887,-3.3853850823923897 c0.022935444161176374,-0.17468464549799423 0.04587088832235272,-0.35984996614360926 0.06593952730463674,-0.5694711846392092 l0.8400095143317897,0 c-0.05160449868013731,0.8384854674857214 -0.19781808054889127,1.5267421873234328 -0.45297427013570407,2.1625937509130755 z" class="" fill="#e8e841" fill-opacity="1" stroke-opacity="1" stroke-width="0.3"/><path stroke="#000000" d="m22.77997774474309,2.268460616276655 c0.025802249340068664,-0.9432963734851829 0.005733610357784571,-1.9564658929655756 0.0028668051788922864,-1.991403059466503 l-7.820974927565684,0 c0,0.03493716650092731 -0.022935444161176384,1.0481066859813215 0.0028668051788922864,1.991403059466503 l-2.0469856338773824,0 c0,2.3757089234600963 0.283825745470793,3.5740443570894267 0.6020546571833499,4.42650445377419 s0.7568686545887804,1.5826412976229245 1.6828858338424728,2.456063931609572 c0.862944958492967,0.8140295696357367 2.7379147611615258,1.8726175242679988 2.990204145569447,2.0123650032650664 l0,0.9887142151337316 c-0.13187855324425432,0.34936869749266736 -0.6737277948457724,0.9852202610823101 -2.388149488386096,0.9852202610823101 l-0.5934537402816547,0 l0,1.676970934971442 l7.339331602911025,0 l0,-1.676970934971442 l-0.7368000156064969,0 c-1.740224444245414,0 -2.150194631237656,-0.6672947760391482 -2.2448032130612527,-0.9852202610823101 l0,-0.9887142151337316 c0.2666239116674014,-0.16071001629895168 2.3193431559025677,-1.4079566521249307 2.993070950748339,-2.008871642716967 c0.7224654883470162,-0.6428388781891637 1.4592655039535125,-1.7992504242213663 1.6828858338424728,-2.456063931609572 s0.5991878520044575,-2.2639107028611147 0.5991878520044575,-4.429998407825611 l-2.0641869663157544,0 zm-8.096199756134782,3.734754373388378 c-0.25228938440792087,-0.635851563589642 -0.4013697714555673,-1.324108283427355 -0.450107464956812,-2.1625937509130755 l0.8228076805283991,0 c0.02006863898228411,0.2096212184956002 0.0401367765995491,0.3947871326445372 0.06593952730463676,0.5694711846392093 c0.1892171636471953,1.3695261250759034 0.42430521561674334,2.4525699775581513 0.7368000156064969,3.371410453193349 c-0.4959783532791645,-0.4716481867425911 -0.8973481247347309,-1.0760565378827274 -1.17543975848272,-1.778287886919481 zm8.394360028865055,0 c-0.283825745470793,0.7092192571395973 -0.6880623221052515,1.3171209688278331 -1.1926415922861118,1.792262516118524 c0.31536210653366525,-0.9153465215837762 0.544716046780409,-1.9844157448669817 0.7396668207853887,-3.3853850823923897 c0.022935444161176384,-0.17468464549799428 0.045870888322352726,-0.3598499661436093 0.06593952730463676,-0.5694711846392093 l0.8400095143317897,0 c-0.05160449868013733,0.8384854674857215 -0.19781808054889127,1.5267421873234328 -0.45297427013570407,2.1625937509130755 z" class="" fill="#e8e841" fill-opacity="1" stroke-opacity="1" stroke-width="0.3" id="svg_2"/><path stroke="#000000" d="m18.247844401700753,8.929197815056087 c0.03591710083698595,-1.1455455901440181 0.007981267782756329,-2.375945608349249 0.003990633891378164,-2.4183735431343645 l-10.886909176584517,0 c0,0.04242793478511482 -0.031926466945607815,1.272827952990348 0.003990633891378164,2.4183735431343645 l-2.8494333364053848,0 c0,2.8850772219980927 0.39508950502142737,4.34034399720632 0.8380687104612651,5.375577389361742 s1.0535720133904718,1.9219704540719575 2.3426011970743317,2.9826608954002496 c1.2012317485370854,0.9885630963445017 3.811216582850411,2.274119573921281 4.162407021344805,2.4438298715527282 l0,1.2007013287610622 c-0.18357683598359878,0.4242757440786145 -0.937838745189469,1.1964582469807477 -3.324338310883538,1.1964582469807477 l-0.8260961108798412,0 l0,2.0365250130863575 l10.216454766541347,0 l0,-2.0365250130863575 l-1.0256361803362422,0 c-2.4224173644383526,0 -2.993101739753327,-0.8103673559069328 -3.1247982414271354,-1.1964582469807477 l0,-1.2007013287610622 c0.3711443058585768,-0.19516734680431744 3.2285589100467162,-1.7098322216553967 4.166397655236183,-2.4395875105269216 c1.0056823129720596,-0.7806679457082548 2.0313184933083024,-2.1850220640797526 2.3426011970743317,-2.9826608954002496 s0.8340780765698869,-2.7493086955911332 0.8340780765698869,-5.3798204711420565 l-2.8733778376609442,0 zm-11.27002608202452,4.5355113440106365 c-0.35119043849439424,-0.7721825029021324 -0.5587124736408446,-1.608006187227431 -0.626556041423438,-2.6262686937706095 l1.1453600824286267,0 c0.027935833054229715,0.2545654464471683 0.05587096820116794,0.47943220345016574 0.09178876694544515,0.6915697151122181 c0.26339300334761817,1.663161925844475 0.5906389405864517,2.978417813619936 1.0256361803362422,4.094263993565274 c-0.6904089753146528,-0.572772795072008 -1.249121448955496,-1.3067704449693411 -1.636228988286875,-2.1595650149068812 zm11.685069454410128,0 c-0.39508950502142737,0.8612807334981708 -0.9577926125536483,1.5995207444213086 -1.6601741874497264,2.1765359005191254 c0.43898857154846105,-1.111603098165024 0.7582525430972457,-2.409888100328242 1.0296268142276201,-4.111234879177515 c0.031926466945607815,-0.21213823241656063 0.06385293389121559,-0.4370042686650504 0.09178876694544515,-0.6915697151122181 l1.1693052815914764,0 c-0.07183420167397198,1.0182625065431794 -0.2753656029290442,1.8540861908684767 -0.6305466753148159,2.6262686937706095 z" class="" fill="#e8e841" fill-opacity="1" stroke-opacity="1" stroke-width="0.3" id="svg_3"/>
 </g>
</svg>